<svg width="40" height="40" viewBox="0 0 40 40" fill="none" xmlns="http://www.w3.org/2000/svg">
<circle cx="20" cy="20" r="20" fill="#007AFE"/>
<path d="M29.6154 21.9231H28.6539C28.6539 18.2019 25.6442 15.1923 21.9231 15.1923H20.9616V13.9712C21.254 13.8023 21.4968 13.5595 21.6656 13.2671C21.8344 12.9746 21.9232 12.6429 21.9231 12.3052C21.923 11.9676 21.834 11.6359 21.6651 11.3436C21.4961 11.0512 21.2532 10.8085 20.9607 10.6398C20.6682 10.4711 20.3364 10.3824 19.9988 10.3827C19.6611 10.3829 19.3295 10.472 19.0372 10.641C18.7449 10.8101 18.5023 11.0531 18.3337 11.3457C18.1652 11.6383 18.0766 11.9701 18.0769 12.3077C18.0769 13.0192 18.4616 13.6442 19.0385 13.9712V15.1923H18.0769C14.3558 15.1923 11.3462 18.2019 11.3462 21.9231H10.3846C9.85579 21.9231 9.4231 22.3558 9.4231 22.8846V25.7692C9.4231 26.2981 9.85579 26.7308 10.3846 26.7308H11.3462V27.6923C11.3462 28.2024 11.5488 28.6915 11.9094 29.0521C12.2701 29.4128 12.7592 29.6154 13.2692 29.6154H26.7308C27.7981 29.6154 28.6539 28.7596 28.6539 27.6923V26.7308H29.6154C30.1442 26.7308 30.5769 26.2981 30.5769 25.7692V22.8846C30.5769 22.3558 30.1442 21.9231 29.6154 21.9231ZM17.875 24.3269C17.5 23.4808 16.6635 22.8846 15.6731 22.8846C14.6827 22.8846 13.8462 23.4808 13.4712 24.3269C13.3462 24.0289 13.2692 23.7116 13.2692 23.3654C13.2692 22.7279 13.5225 22.1164 13.9733 21.6656C14.4241 21.2148 15.0356 20.9616 15.6731 20.9616C16.3106 20.9616 16.9221 21.2148 17.3729 21.6656C17.8237 22.1164 18.0769 22.7279 18.0769 23.3654C18.0769 23.7116 18 24.0289 17.875 24.3269ZM26.5289 24.3269C26.1539 23.4808 25.2885 22.8846 24.3269 22.8846C23.3654 22.8846 22.5 23.4808 22.125 24.3269C22 24.0289 21.9231 23.7116 21.9231 23.3654C21.9231 22.7279 22.1764 22.1164 22.6272 21.6656C23.078 21.2148 23.6894 20.9616 24.3269 20.9616C24.9645 20.9616 25.5759 21.2148 26.0267 21.6656C26.4775 22.1164 26.7308 22.7279 26.7308 23.3654C26.7308 23.7116 26.6539 24.0289 26.5289 24.3269Z" fill="white"/>
</svg>
